<svg id="Laag_1" data-name="Laag 1" xmlns="http://www.w3.org/2000/svg" viewBox="0 0 512 512"><defs><style>.cls-1{fill:#fff;}</style></defs><title>Calendar</title><path class="cls-1" d="M256,17a239.07,239.07,0,0,1,93,459.23A239.07,239.07,0,0,1,163,35.77,237.6,237.6,0,0,1,256,17m0-17C114.62,0,0,114.62,0,256S114.62,512,256,512,512,397.38,512,256,397.38,0,256,0Z"/><path id="ic_today_24px" data-name="ic today 24px" class="cls-1" d="M351.37,145.55H338.08V119H311.5v26.58H205.15V119H178.57v26.58H165.26A26.46,26.46,0,0,0,138.81,172v.1l-.13,186.12a26.57,26.57,0,0,0,26.58,26.57H351.37A26.65,26.65,0,0,0,378,358.25V172.13A26.66,26.66,0,0,0,351.37,145.55Zm0,212.69H165.26V212H351.37ZM191.84,238.61h66.48v66.46H191.84Z"/></svg>