<svg id="Laag_1" data-name="Laag 1" xmlns="http://www.w3.org/2000/svg" viewBox="0 0 748.7 512"><defs><style>.cls-1{fill:#fff;}</style></defs><title>Compare</title><path id="Path_8" data-name="Path 8" class="cls-1" d="M400.72,311.08V503.6a8.4,8.4,0,0,0,8.39,8.4h112a8.4,8.4,0,0,0,8.4-8.4V453.87a44.37,44.37,0,0,1,44.37-44.38h0a44.38,44.38,0,0,1,44.38,44.38h0V503.6a8.39,8.39,0,0,0,8.39,8.4H740.3a8.4,8.4,0,0,0,8.4-8.4V311.39a8.36,8.36,0,0,0-3.53-6.82l-177-125.79a8.39,8.39,0,0,0-10.16.34L403.82,304.54A8.38,8.38,0,0,0,400.72,311.08Z"/><path id="Path_7" data-name="Path 7" class="cls-1" d="M0,133.85V326.37a8.4,8.4,0,0,0,8.39,8.4h112a8.4,8.4,0,0,0,8.39-8.4V276.64a44.38,44.38,0,0,1,44.38-44.38h0a44.38,44.38,0,0,1,44.38,44.38h0v49.73a8.4,8.4,0,0,0,8.39,8.4H339.58a8.4,8.4,0,0,0,8.4-8.4V134.16a8.4,8.4,0,0,0-3.54-6.83L167.42,1.55a8.39,8.39,0,0,0-10.16.34L3.09,127.31A8.4,8.4,0,0,0,0,133.85Z"/></svg>