<svg id="Laag_1" data-name="Laag 1" xmlns="http://www.w3.org/2000/svg" viewBox="0 0 590.81 512"><defs><style>.cls-1{fill:none;stroke:#fff;stroke-linejoin:round;stroke-width:57px;}.cls-2{fill:#fff;}</style></defs><title>Tekengebied 1</title><path id="Path_4" data-name="Path 4" class="cls-1" d="M520.56,302.75V39.91a11.6,11.6,0,0,0-11.78-11.42H43A11.59,11.59,0,0,0,31.23,39.88V388.26A11.61,11.61,0,0,0,43,399.65H212a11.33,11.33,0,0,1,7,20.53L167.65,451s-49.82,27.3-46.17,32.38c0,0,22.22.44,33.37,0h45.89c6.44-.1,148.12,0,148.12,0H392c11.16.52,35.87,0,35.87,0,3.29-5.07-45.95-32.38-45.95-32.38l-48-30.67a11.34,11.34,0,0,1,6.88-20.64l144.43.2"/><g id="Rectangle_11" data-name="Rectangle 11"><polygon class="cls-2" points="211.02 371.15 210.99 469.62 341.03 469.67 341.07 371.2 211.02 371.15 211.02 371.15"/></g><g id="Group_6" data-name="Group 6"><g id="Rectangle_12" data-name="Rectangle 12"><path class="cls-2" d="M565.81,316.89V485.52H497.43V316.89h68.38m15.26-25H482.18a9.75,9.75,0,0,0-9.75,9.75V500.78a9.75,9.75,0,0,0,9.75,9.74h98.89a9.74,9.74,0,0,0,9.74-9.74V301.64a9.74,9.74,0,0,0-9.74-9.75Z"/></g></g></svg>