<svg id="Laag_1" data-name="Laag 1" xmlns="http://www.w3.org/2000/svg" viewBox="0 0 511.62 512"><defs><style>.cls-1{fill:#fff;}</style></defs><title>Tekengebied 1</title><path class="cls-1" d="M255.62,17a239.07,239.07,0,0,1,93,459.23,239.07,239.07,0,0,1-186-440.46,237.65,237.65,0,0,1,93-18.77m0-17C114.23,0-.38,114.62-.38,256s114.61,256,256,256,256-114.62,256-256S397,0,255.62,0Z"/><g id="statistics"><path id="Path_105" data-name="Path 105" class="cls-1" d="M162.77,246.5a22.07,22.07,0,0,0,15.36-6.24L200,251.2a20.26,20.26,0,0,0-.27,2.69,22.17,22.17,0,0,0,44.34,0h0a21.9,21.9,0,0,0-2.23-9.5l29.68-29.68a21.87,21.87,0,0,0,9.5,2.23,22.21,22.21,0,0,0,22.16-22.16,21.86,21.86,0,0,0-1.11-6.56l25.78-19.34A22.16,22.16,0,1,0,318,150.44a21.61,21.61,0,0,0,1.11,6.57l-25.81,19.33a22.08,22.08,0,0,0-32.22,27.93L231.38,234a21.78,21.78,0,0,0-24.85,4L184.65,227a20.11,20.11,0,0,0,.27-2.68,22.17,22.17,0,1,0-22.18,22.16Z"/><path id="Path_106" data-name="Path 106" class="cls-1" d="M370.19,365.74h-7.88V209.56a7.38,7.38,0,0,0-7.38-7.39H325.36a7.38,7.38,0,0,0-7.39,7.38h0V365.74H303.19V253.9a7.38,7.38,0,0,0-7.38-7.39H266.24a7.38,7.38,0,0,0-7.39,7.38h0V365.74H244.07V313a7.38,7.38,0,0,0-7.38-7.39H207.12a7.38,7.38,0,0,0-7.39,7.38h0v52.72H185V283.46a7.39,7.39,0,0,0-7.39-7.39H148a7.39,7.39,0,0,0-7.39,7.38h0v82.28h-7.88a7.39,7.39,0,0,0,0,14.78H370.19a7.39,7.39,0,1,0,.37-14.78Z"/></g></svg>