<svg id="Laag_1" data-name="Laag 1" xmlns="http://www.w3.org/2000/svg" viewBox="0 0 532.11 512"><defs><style>.cls-1{fill:#fff;}</style></defs><title>Home</title><path id="Path_6" data-name="Path 6" class="cls-1" d="M0,204.64V499.15A12.83,12.83,0,0,0,12.83,512H184.07a12.83,12.83,0,0,0,12.85-12.83h0V423.09a67.82,67.82,0,0,1,67.81-67.82h0a67.81,67.81,0,0,1,67.83,67.81h0v76.06A12.84,12.84,0,0,0,345.4,512H519.26a12.84,12.84,0,0,0,12.85-12.83v-294a12.82,12.82,0,0,0-5.41-10.47L256.05,2.37a12.83,12.83,0,0,0-15.53.51L4.74,194.71A12.84,12.84,0,0,0,0,204.64Z"/></svg>