<svg id="Laag_1" data-name="Laag 1" xmlns="http://www.w3.org/2000/svg" viewBox="0 0 649.48 512"><defs><style>.cls-1{fill:#fff;}</style></defs><title>Tekengebied 1</title><circle id="Ellipse_1" data-name="Ellipse 1" class="cls-1" cx="199.21" cy="163.02" r="97.61"/><g id="Group_2" data-name="Group 2"><path id="Path_5" data-name="Path 5" class="cls-1" d="M300.23,272H96.83a15.47,15.47,0,0,1-15.47-15.46h0v-241A15.47,15.47,0,0,0,65.9,0H15.45A15.47,15.47,0,0,0,0,15.47V496.53A15.47,15.47,0,0,0,15.47,512h106.9A15.58,15.58,0,0,0,138,496.43h0v-60c0-22.52-4.28-95.57,186.21-95.57s189.28,72.39,189.28,95.57v60.08A15.55,15.55,0,0,0,529,512H634a15.48,15.48,0,0,0,15.48-15.47V272Z"/></g><path id="Path_5-2" data-name="Path 5" class="cls-1" d="M649.48,255V210A157.3,157.3,0,0,0,492.19,52.75H331.76a15.48,15.48,0,0,0-15.47,15.42l-.6,171.42c0,11.6,0,15.41,8.54,15.41Z"/></svg>