<svg id="Laag_1" data-name="Laag 1" xmlns="http://www.w3.org/2000/svg" viewBox="0 0 486.35 512"><defs><style>.cls-1{fill:#fff;fill-rule:evenodd;}</style></defs><title>Tekengebied 1</title><path id="Path_104" data-name="Path 104" class="cls-1" d="M240,320a64,64,0,1,0-64-64h0A64.19,64.19,0,0,0,240,320ZM108.77,115.17a180.44,180.44,0,0,1,76.81-41.55L211.18,0h64l25.59,73.62a223.35,223.35,0,0,1,76.8,41.59l76.79-16,32,57.6-51.19,57.6a183,183,0,0,1,3.2,41.59c0,12.8-3.2,28.8-3.2,41.59l51.19,57.6-32,57.6-76.79-16a180.43,180.43,0,0,1-76.8,41.59L275.18,512h-64l-25.6-73.62a223.31,223.31,0,0,1-76.79-41.59l-76.8,16L0,355.17l51.2-57.6A182.42,182.42,0,0,1,48,256c0-12.8,3.2-28.8,3.2-41.59L0,156.79l32-57.6Z"/></svg>